<?xml version="1.0" encoding="utf-8"?>
<!-- Generator: Adobe Illustrator 24.0.2, SVG Export Plug-In . SVG Version: 6.00 Build 0)  -->
<svg version="1.1" id="Layer_1" xmlns="http://www.w3.org/2000/svg" xmlns:xlink="http://www.w3.org/1999/xlink" x="0px" y="0px"
	 viewBox="0 0 800 800" style="enable-background:new 0 0 800 800;" xml:space="preserve">
<style type="text/css">
	.st0{fill:#E6DDD8;}
	.st1{fill:#9DA381;}
	.st2{fill:#5F6A48;}
	.st3{fill:#FFFFFF;}
	.st4{fill:#D5CDB8;}
</style>
<g>
	<path class="st4" d="M392.29,500.48c-6.41-21.7-16.33-42.12-25.75-62.61c-8.31-18.12-16.42-36.51-21.27-55.89
		c-2.47-9.85-4.09-19.97-4.37-30.14c-0.13-4.76,0.04-9.51,0.54-14.25c0.28-2.69,0.67-5.39,1.17-8.06c0.32-1.65,0.69-3.31,1.1-4.94
		c0.46-1.43,0.61-2.01,0.48-1.88c1.71-3.73,3.85-7.92,4.27-11.84c0.39-3.51-1.75,2.23-2.14,3.16c-8.71,20.36-14.4,40.6-12.69,62.91
		c1.69,22.11,9.14,43.25,17.84,63.49c8.45,19.69,18.28,38.78,26.12,58.73c4.07,10.35,7.39,21.42,10.44,32.11
		c2.71,9.51,4.33,19.62,2.25,29.28c-5.11,23.8-31.36,37.38-54.16,36.47c-24.31-0.97-45.64-16.66-55.55-38.83
		c-11.22-25.08-5.37-52.96,7.51-76.24c8.71-15.75,20.68-29.98,34.96-40.96c0.24-0.18,10.4-8.12,9.79-9.12
		c-1.13-1.87-27.5,21.15-29.79,23.51c-18,18.51-29.99,39.69-32.77,65.56c-2.6,24.22,2.1,49.9,15.28,70.6
		c5.69,8.9,13.54,16.2,22.85,21.16c21.74,11.61,49.83,8.73,68.34-7.75C404.38,580.32,401.8,532.64,392.29,500.48z"/>
	<path class="st4" d="M530.03,523.26c-2.32-24.31-13.43-46.52-26.74-66.6c-13.98-21.09-30.47-40.38-44.99-61.09
		c-14.59-20.81-27.34-42.93-37.86-66.08c-5.64-12.4-10.96-25.13-14.74-38.23c-1.87-6.47-3.34-13.08-3.99-19.79
		c-0.4-4.11-0.48-8.24-0.15-12.36c0.1-1.3,0.25-2.58,0.44-3.87c0.58-3.99,4.1-10.73-1.14,0.34c2.08-4.4,3.92-9.04,5.35-13.7
		c0.91-2.95,0.87-3.9-0.82-0.32c-5.19,10.95-10.15,22.96-11.35,35.14c-1.09,11.08,0.83,22.31,3.83,32.95
		c6.57,23.3,17.32,45.85,28.97,66.99c12,21.78,26.19,42.02,41.27,61.75c14.78,19.33,30.04,38.63,41.04,60.45
		c7.78,15.42,15.97,35.88,12.86,53.42c-0.94,5.31-3.07,10.36-5.68,15.09c-7.86,14.21-20.55,25.89-35.77,31.55
		c-17.08,6.35-37.01,4.6-52.13-5.86c-10.15-7.03-17.68-17.93-20.04-30.04c-2.38-12.18,0.41-24.36,4.57-36.25
		c-0.02-0.04-0.03-0.08-0.05-0.13c-0.83-2.31-1.39-4.74-2.01-7.12c-4.12,14.33-6.73,29.01-5.45,44.94c1,12.38,4.21,24.9,11.55,34.92
		c10.92,14.88,30.42,22.44,48.76,20.42C509.6,614.95,533.84,563.22,530.03,523.26z"/>
	<g>
		<path class="st4" d="M447.95,180.57c-3.88,13.63-10.73,28.18-22.99,36.17c-10.33,6.74-22.11,6.04-33.74,8.21
			c-27.17,5.06-39.03,34.85-43.39,59.13c-0.49,2.71-1.17,5.77-0.94,8.53c0.14,1.67,0.25,2.5,0.68,0.07
			c2.62-14.61,8.24-29.59,17.77-41.16c8.5-10.32,19.6-14.24,32.54-15.58c12.08-1.25,23.19-3.41,32.13-12.35
			c8.8-8.8,13.91-20.77,17.27-32.56c0.74-2.61,0.96-5.53,1.08-8.23C448.39,182.21,448.56,178.41,447.95,180.57L447.95,180.57z"/>
	</g>
	<path class="st4" d="M508.02,526.64c-0.02,0.26-0.07,0.63-0.17,1.08c-0.85,4.4-5.52,6.73-9.7,5.09c-5.83-2.27-12.93-1.9-18.71,0.84
		c-8.86,4.2-14.99,12.63-19.49,21.35c-3.66,7.1-7.41,15.42-15.07,17.65c-4.5,1.32-9.49,0.04-13.34-2.62
		c-3.86-2.66-6.71-6.58-8.86-10.74c-6.32-12.2-6.56-25.4-8.73-38.66c-2.91-17.66-8.45-34.27-14.09-51.18
		c-6.02-18.04-12.12-36.06-18.86-53.84c-8.23-21.79-17.21-43.31-18.97-66.67c-1.73-23,2.62-44.35,11.13-65.66
		c0.07-0.19,4.11-10.8,4.85-10.52c0.74,0.3-3.21,10.14-3.57,11.02c-3.92,9.87-4.48,22.74-4.42,33.54
		c0.07,11.54,1.47,23.04,3.99,34.3l0.45,2.03c7.13,31.66,20.98,60.94,32.03,91.28c10.98,30.19,15.72,44.54,22.44,75.92
		c1.8,8.49,2.25,19.23,9.07,25.49c14.31,13.16,28.48-27.82,33.59-35.49c2.54-3.82,6.01-7.09,10.19-9
		c9.86-4.49,21.23,0.11,24.84,10.28c0.13,0.37,0.26,0.78,0.39,1.19C508.3,517.61,508.36,522.22,508.02,526.64z"/>
</g>
</svg>
